<?xml version="1.0" encoding="UTF-8" standalone="no"?>
<!DOCTYPE svg PUBLIC "-//W3C//DTD SVG 1.1//EN"
 "http://www.w3.org/Graphics/SVG/1.1/DTD/svg11.dtd">
<!-- Generated by graphviz version 3.0.0 (20220226.1711)
 -->
<!-- Title: G Pages: 1 -->
<svg width="2059pt" height="371pt"
 viewBox="0.00 0.00 2059.20 370.70" xmlns="http://www.w3.org/2000/svg" xmlns:xlink="http://www.w3.org/1999/xlink">
<g id="graph0" class="graph" transform="scale(1 1) rotate(0) translate(21.6 349.1)">
<title>G</title>
<polygon fill="#111111" stroke="transparent" points="-21.6,21.6 -21.6,-349.1 2037.6,-349.1 2037.6,21.6 -21.6,21.6"/>
<!-- app.js -->
<g id="node1" class="node">
<title>app.js</title>
<path fill="none" stroke="#c6c5fe" d="M46.33,-228.5C46.33,-228.5 7.67,-228.5 7.67,-228.5 3.83,-228.5 0,-224.67 0,-220.83 0,-220.83 0,-213.17 0,-213.17 0,-209.33 3.83,-205.5 7.67,-205.5 7.67,-205.5 46.33,-205.5 46.33,-205.5 50.17,-205.5 54,-209.33 54,-213.17 54,-213.17 54,-220.83 54,-220.83 54,-224.67 50.17,-228.5 46.33,-228.5"/>
<text text-anchor="middle" x="27" y="-213.3" font-family="Arial" font-size="14.00" fill="#c6c5fe">app.js</text>
</g>
<!-- menus/index.js -->
<g id="node2" class="node">
<title>menus/index.js</title>
<path fill="none" stroke="#c6c5fe" d="M189.33,-248.5C189.33,-248.5 97.67,-248.5 97.67,-248.5 93.83,-248.5 90,-244.67 90,-240.83 90,-240.83 90,-233.17 90,-233.17 90,-229.33 93.83,-225.5 97.67,-225.5 97.67,-225.5 189.33,-225.5 189.33,-225.5 193.17,-225.5 197,-229.33 197,-233.17 197,-233.17 197,-240.83 197,-240.83 197,-244.67 193.17,-248.5 189.33,-248.5"/>
<text text-anchor="middle" x="143.5" y="-233.3" font-family="Arial" font-size="14.00" fill="#c6c5fe">menus/index.js</text>
</g>
<!-- app.js&#45;&gt;menus/index.js -->
<g id="edge1" class="edge">
<title>app.js&#45;&gt;menus/index.js</title>
<path fill="none" stroke="#757575" d="M54.27,-221.59C61.94,-222.93 70.68,-224.46 79.61,-226.01"/>
<polygon fill="#757575" stroke="#757575" points="79.26,-229.51 89.71,-227.78 80.46,-222.61 79.26,-229.51"/>
</g>
<!-- menus/print/printMenu.js -->
<g id="node3" class="node">
<title>menus/print/printMenu.js</title>
<path fill="none" stroke="#c6c5fe" d="M904.33,-245.5C904.33,-245.5 753.67,-245.5 753.67,-245.5 749.83,-245.5 746,-241.67 746,-237.83 746,-237.83 746,-230.17 746,-230.17 746,-226.33 749.83,-222.5 753.67,-222.5 753.67,-222.5 904.33,-222.5 904.33,-222.5 908.17,-222.5 912,-226.33 912,-230.17 912,-230.17 912,-237.83 912,-237.83 912,-241.67 908.17,-245.5 904.33,-245.5"/>
<text text-anchor="middle" x="829" y="-230.3" font-family="Arial" font-size="14.00" fill="#c6c5fe">menus/print/printMenu.js</text>
</g>
<!-- app.js&#45;&gt;menus/print/printMenu.js -->
<g id="edge2" class="edge">
<title>app.js&#45;&gt;menus/print/printMenu.js</title>
<path fill="none" stroke="#757575" d="M54.24,-216.48C65.28,-216.29 78.27,-216.09 90,-216 137.55,-215.62 149.45,-215.32 197,-216 388.59,-218.73 612.8,-226.13 735.71,-230.54"/>
<polygon fill="#757575" stroke="#757575" points="735.71,-234.05 745.83,-230.91 735.97,-227.05 735.71,-234.05"/>
</g>
<!-- menus/create/createMenu.js -->
<g id="node10" class="node">
<title>menus/create/createMenu.js</title>
<path fill="none" stroke="#c6c5fe" d="M413.33,-149.5C413.33,-149.5 240.67,-149.5 240.67,-149.5 236.83,-149.5 233,-145.67 233,-141.83 233,-141.83 233,-134.17 233,-134.17 233,-130.33 236.83,-126.5 240.67,-126.5 240.67,-126.5 413.33,-126.5 413.33,-126.5 417.17,-126.5 421,-130.33 421,-134.17 421,-134.17 421,-141.83 421,-141.83 421,-145.67 417.17,-149.5 413.33,-149.5"/>
<text text-anchor="middle" x="327" y="-134.3" font-family="Arial" font-size="14.00" fill="#c6c5fe">menus/create/createMenu.js</text>
</g>
<!-- menus/index.js&#45;&gt;menus/create/createMenu.js -->
<g id="edge33" class="edge">
<title>menus/index.js&#45;&gt;menus/create/createMenu.js</title>
<path fill="none" stroke="#757575" d="M165.68,-225.45C197.83,-207.91 259.11,-174.49 295.89,-154.42"/>
<polygon fill="#757575" stroke="#757575" points="297.58,-157.49 304.68,-149.63 294.22,-151.35 297.58,-157.49"/>
</g>
<!-- menus/delete/deleteMenu.js -->
<g id="node13" class="node">
<title>menus/delete/deleteMenu.js</title>
<path fill="none" stroke="#c6c5fe" d="M412.83,-267.5C412.83,-267.5 241.17,-267.5 241.17,-267.5 237.33,-267.5 233.5,-263.67 233.5,-259.83 233.5,-259.83 233.5,-252.17 233.5,-252.17 233.5,-248.33 237.33,-244.5 241.17,-244.5 241.17,-244.5 412.83,-244.5 412.83,-244.5 416.67,-244.5 420.5,-248.33 420.5,-252.17 420.5,-252.17 420.5,-259.83 420.5,-259.83 420.5,-263.67 416.67,-267.5 412.83,-267.5"/>
<text text-anchor="middle" x="327" y="-252.3" font-family="Arial" font-size="14.00" fill="#c6c5fe">menus/delete/deleteMenu.js</text>
</g>
<!-- menus/index.js&#45;&gt;menus/delete/deleteMenu.js -->
<g id="edge34" class="edge">
<title>menus/index.js&#45;&gt;menus/delete/deleteMenu.js</title>
<path fill="none" stroke="#757575" d="M197.49,-242.55C205.7,-243.41 214.41,-244.32 223.28,-245.25"/>
<polygon fill="#757575" stroke="#757575" points="223.02,-248.74 233.34,-246.3 223.75,-241.78 223.02,-248.74"/>
</g>
<!-- database/index.js -->
<g id="node8" class="node">
<title>database/index.js</title>
<path fill="none" stroke="#ff6c60" d="M1062.33,-245.5C1062.33,-245.5 955.67,-245.5 955.67,-245.5 951.83,-245.5 948,-241.67 948,-237.83 948,-237.83 948,-230.17 948,-230.17 948,-226.33 951.83,-222.5 955.67,-222.5 955.67,-222.5 1062.33,-222.5 1062.33,-222.5 1066.17,-222.5 1070,-226.33 1070,-230.17 1070,-230.17 1070,-237.83 1070,-237.83 1070,-241.67 1066.17,-245.5 1062.33,-245.5"/>
<text text-anchor="middle" x="1009" y="-230.3" font-family="Arial" font-size="14.00" fill="#ff6c60">database/index.js</text>
</g>
<!-- menus/print/printMenu.js&#45;&gt;database/index.js -->
<g id="edge35" class="edge">
<title>menus/print/printMenu.js&#45;&gt;database/index.js</title>
<path fill="none" stroke="#757575" d="M912.23,-234C920.77,-234 929.41,-234 937.81,-234"/>
<polygon fill="#757575" stroke="#757575" points="937.91,-237.5 947.91,-234 937.91,-230.5 937.91,-237.5"/>
</g>
<!-- database/engine/checkData.js -->
<g id="node4" class="node">
<title>database/engine/checkData.js</title>
<path fill="none" stroke="#c6c5fe" d="M1775.33,-127.5C1775.33,-127.5 1593.67,-127.5 1593.67,-127.5 1589.83,-127.5 1586,-123.67 1586,-119.83 1586,-119.83 1586,-112.17 1586,-112.17 1586,-108.33 1589.83,-104.5 1593.67,-104.5 1593.67,-104.5 1775.33,-104.5 1775.33,-104.5 1779.17,-104.5 1783,-108.33 1783,-112.17 1783,-112.17 1783,-119.83 1783,-119.83 1783,-123.67 1779.17,-127.5 1775.33,-127.5"/>
<text text-anchor="middle" x="1684.5" y="-112.3" font-family="Arial" font-size="14.00" fill="#c6c5fe">database/engine/checkData.js</text>
</g>
<!-- database/schema/database.js -->
<g id="node5" class="node">
<title>database/schema/database.js</title>
<path fill="none" stroke="#cfffac" d="M2008.33,-147.5C2008.33,-147.5 1826.67,-147.5 1826.67,-147.5 1822.83,-147.5 1819,-143.67 1819,-139.83 1819,-139.83 1819,-132.17 1819,-132.17 1819,-128.33 1822.83,-124.5 1826.67,-124.5 1826.67,-124.5 2008.33,-124.5 2008.33,-124.5 2012.17,-124.5 2016,-128.33 2016,-132.17 2016,-132.17 2016,-139.83 2016,-139.83 2016,-143.67 2012.17,-147.5 2008.33,-147.5"/>
<text text-anchor="middle" x="1917.5" y="-132.3" font-family="Arial" font-size="14.00" fill="#cfffac">database/schema/database.js</text>
</g>
<!-- database/engine/checkData.js&#45;&gt;database/schema/database.js -->
<g id="edge3" class="edge">
<title>database/engine/checkData.js&#45;&gt;database/schema/database.js</title>
<path fill="none" stroke="#757575" d="M1783.13,-124.45C1791.63,-125.19 1800.25,-125.94 1808.83,-126.68"/>
<polygon fill="#757575" stroke="#757575" points="1808.58,-130.17 1818.85,-127.55 1809.19,-123.2 1808.58,-130.17"/>
</g>
<!-- database/engine/deleteData.js -->
<g id="node6" class="node">
<title>database/engine/deleteData.js</title>
<path fill="none" stroke="#c6c5fe" d="M1542.33,-291.5C1542.33,-291.5 1358.67,-291.5 1358.67,-291.5 1354.83,-291.5 1351,-287.67 1351,-283.83 1351,-283.83 1351,-276.17 1351,-276.17 1351,-272.33 1354.83,-268.5 1358.67,-268.5 1358.67,-268.5 1542.33,-268.5 1542.33,-268.5 1546.17,-268.5 1550,-272.33 1550,-276.17 1550,-276.17 1550,-283.83 1550,-283.83 1550,-287.67 1546.17,-291.5 1542.33,-291.5"/>
<text text-anchor="middle" x="1450.5" y="-276.3" font-family="Arial" font-size="14.00" fill="#c6c5fe">database/engine/deleteData.js</text>
</g>
<!-- database/engine/deleteData.js&#45;&gt;database/schema/database.js -->
<g id="edge4" class="edge">
<title>database/engine/deleteData.js&#45;&gt;database/schema/database.js</title>
<path fill="none" stroke="#757575" d="M1550.17,-284.61C1618.1,-284.3 1709.06,-276.89 1783,-246 1832.01,-225.53 1877.02,-180.84 1900.16,-155.17"/>
<polygon fill="#757575" stroke="#757575" points="1902.89,-157.37 1906.89,-147.56 1897.64,-152.73 1902.89,-157.37"/>
</g>
<!-- database/engine/makeData.js -->
<g id="node7" class="node">
<title>database/engine/makeData.js</title>
<path fill="none" stroke="#ff6c60" d="M1540.83,-165.5C1540.83,-165.5 1360.17,-165.5 1360.17,-165.5 1356.33,-165.5 1352.5,-161.67 1352.5,-157.83 1352.5,-157.83 1352.5,-150.17 1352.5,-150.17 1352.5,-146.33 1356.33,-142.5 1360.17,-142.5 1360.17,-142.5 1540.83,-142.5 1540.83,-142.5 1544.67,-142.5 1548.5,-146.33 1548.5,-150.17 1548.5,-150.17 1548.5,-157.83 1548.5,-157.83 1548.5,-161.67 1544.67,-165.5 1540.83,-165.5"/>
<text text-anchor="middle" x="1450.5" y="-150.3" font-family="Arial" font-size="14.00" fill="#ff6c60">database/engine/makeData.js</text>
</g>
<!-- database/engine/makeData.js&#45;&gt;database/engine/checkData.js -->
<g id="edge5" class="edge">
<title>database/engine/makeData.js&#45;&gt;database/engine/checkData.js</title>
<path fill="none" stroke="#757575" d="M1521.74,-142.5C1547.4,-138.29 1576.62,-133.51 1603.1,-129.17"/>
<polygon fill="#757575" stroke="#757575" points="1603.8,-132.6 1613.1,-127.53 1602.67,-125.69 1603.8,-132.6"/>
</g>
<!-- database/engine/makeData.js&#45;&gt;database/schema/database.js -->
<g id="edge7" class="edge">
<title>database/engine/makeData.js&#45;&gt;database/schema/database.js</title>
<path fill="none" stroke="#757575" d="M1548.7,-150.24C1624.5,-147.3 1729.73,-143.23 1808.23,-140.19"/>
<polygon fill="#757575" stroke="#757575" points="1808.77,-143.67 1818.63,-139.79 1808.5,-136.68 1808.77,-143.67"/>
</g>
<!-- database/engine/makeData.js&#45;&gt;database/index.js -->
<g id="edge6" class="edge">
<title>database/engine/makeData.js&#45;&gt;database/index.js</title>
<path fill="none" stroke="#757575" d="M1408.68,-165.55C1333.69,-182.34 1173.21,-211.88 1080.34,-226.3"/>
<polygon fill="#757575" stroke="#757575" points="1079.54,-222.89 1070.19,-227.86 1080.6,-229.8 1079.54,-222.89"/>
</g>
<!-- database/index.js&#45;&gt;database/engine/checkData.js -->
<g id="edge11" class="edge">
<title>database/index.js&#45;&gt;database/engine/checkData.js</title>
<path fill="none" stroke="#757575" d="M1070.12,-234.18C1131.8,-233.72 1230.42,-231.2 1315,-221 1420.75,-208.25 1448.36,-205.85 1550,-174 1585.87,-162.76 1625.12,-145 1651.72,-132.1"/>
<polygon fill="#757575" stroke="#757575" points="1653.48,-135.13 1660.91,-127.58 1650.4,-128.85 1653.48,-135.13"/>
</g>
<!-- database/index.js&#45;&gt;database/engine/deleteData.js -->
<g id="edge12" class="edge">
<title>database/index.js&#45;&gt;database/engine/deleteData.js</title>
<path fill="none" stroke="#757575" d="M1040.2,-245.63C1058.86,-252.26 1083.47,-260.02 1106,-264 1183.59,-277.7 1272.47,-281.52 1340.38,-282.02"/>
<polygon fill="#757575" stroke="#757575" points="1340.65,-285.52 1350.67,-282.07 1340.69,-278.52 1340.65,-285.52"/>
</g>
<!-- database/index.js&#45;&gt;database/engine/makeData.js -->
<g id="edge13" class="edge">
<title>database/index.js&#45;&gt;database/engine/makeData.js</title>
<path fill="none" stroke="#757575" d="M1050.95,-222.42C1117.36,-207.56 1250.59,-182.73 1344.68,-167.23"/>
<polygon fill="#757575" stroke="#757575" points="1345.5,-170.64 1354.81,-165.57 1344.37,-163.73 1345.5,-170.64"/>
</g>
<!-- database/engine/variadicData.js -->
<g id="node9" class="node">
<title>database/engine/variadicData.js</title>
<path fill="none" stroke="#ff6c60" d="M1307.33,-89.5C1307.33,-89.5 1113.67,-89.5 1113.67,-89.5 1109.83,-89.5 1106,-85.67 1106,-81.83 1106,-81.83 1106,-74.17 1106,-74.17 1106,-70.33 1109.83,-66.5 1113.67,-66.5 1113.67,-66.5 1307.33,-66.5 1307.33,-66.5 1311.17,-66.5 1315,-70.33 1315,-74.17 1315,-74.17 1315,-81.83 1315,-81.83 1315,-85.67 1311.17,-89.5 1307.33,-89.5"/>
<text text-anchor="middle" x="1210.5" y="-74.3" font-family="Arial" font-size="14.00" fill="#ff6c60">database/engine/variadicData.js</text>
</g>
<!-- database/index.js&#45;&gt;database/engine/variadicData.js -->
<g id="edge14" class="edge">
<title>database/index.js&#45;&gt;database/engine/variadicData.js</title>
<path fill="none" stroke="#757575" d="M1024.99,-222.27C1059.6,-195.22 1145.21,-128.27 1186.5,-95.99"/>
<polygon fill="#757575" stroke="#757575" points="1188.88,-98.57 1194.6,-89.65 1184.57,-93.05 1188.88,-98.57"/>
</g>
<!-- database/engine/variadicData.js&#45;&gt;database/engine/checkData.js -->
<g id="edge8" class="edge">
<title>database/engine/variadicData.js&#45;&gt;database/engine/checkData.js</title>
<path fill="none" stroke="#757575" d="M1315.1,-87C1327.2,-88.03 1339.37,-89.05 1351,-90 1425.91,-96.15 1510.34,-102.75 1575.37,-107.76"/>
<polygon fill="#757575" stroke="#757575" points="1575.4,-111.27 1585.64,-108.55 1575.94,-104.29 1575.4,-111.27"/>
</g>
<!-- database/engine/variadicData.js&#45;&gt;database/schema/database.js -->
<g id="edge10" class="edge">
<title>database/engine/variadicData.js&#45;&gt;database/schema/database.js</title>
<path fill="none" stroke="#757575" d="M1315.02,-72.81C1430.13,-68.95 1621.17,-68.24 1783,-95 1815.56,-100.38 1851.23,-111.63 1877.51,-120.99"/>
<polygon fill="#757575" stroke="#757575" points="1876.5,-124.34 1887.09,-124.46 1878.89,-117.76 1876.5,-124.34"/>
</g>
<!-- database/engine/variadicData.js&#45;&gt;database/engine/makeData.js -->
<g id="edge9" class="edge">
<title>database/engine/variadicData.js&#45;&gt;database/engine/makeData.js</title>
<path fill="none" stroke="#757575" d="M1272.05,-89.53C1286.45,-93.27 1301.53,-98.03 1315,-104 1332.58,-111.79 1333.47,-120.11 1351,-128 1361.06,-132.53 1372.07,-136.4 1382.97,-139.65"/>
<polygon fill="#757575" stroke="#757575" points="1382.34,-143.11 1392.91,-142.48 1384.25,-136.38 1382.34,-143.11"/>
</g>
<!-- menus/create/createMenu.js&#45;&gt;menus/print/printMenu.js -->
<g id="edge17" class="edge">
<title>menus/create/createMenu.js&#45;&gt;menus/print/printMenu.js</title>
<path fill="none" stroke="#757575" d="M421.14,-143.77C516.86,-150.63 658.87,-163.63 710,-183 728.22,-189.9 728.52,-199.4 746,-208 754.65,-212.26 764.16,-216.02 773.54,-219.27"/>
<polygon fill="#757575" stroke="#757575" points="772.63,-222.65 783.22,-222.46 774.82,-216 772.63,-222.65"/>
</g>
<!-- menus/create/submenus/createRow.js -->
<g id="node11" class="node">
<title>menus/create/submenus/createRow.js</title>
<path fill="none" stroke="#c6c5fe" d="M699.33,-89.5C699.33,-89.5 467.67,-89.5 467.67,-89.5 463.83,-89.5 460,-85.67 460,-81.83 460,-81.83 460,-74.17 460,-74.17 460,-70.33 463.83,-66.5 467.67,-66.5 467.67,-66.5 699.33,-66.5 699.33,-66.5 703.17,-66.5 707,-70.33 707,-74.17 707,-74.17 707,-81.83 707,-81.83 707,-85.67 703.17,-89.5 699.33,-89.5"/>
<text text-anchor="middle" x="583.5" y="-74.3" font-family="Arial" font-size="14.00" fill="#c6c5fe">menus/create/submenus/createRow.js</text>
</g>
<!-- menus/create/createMenu.js&#45;&gt;menus/create/submenus/createRow.js -->
<g id="edge15" class="edge">
<title>menus/create/createMenu.js&#45;&gt;menus/create/submenus/createRow.js</title>
<path fill="none" stroke="#757575" d="M360.79,-126.41C386.65,-117.62 423.78,-105.76 457,-98 467.45,-95.56 478.45,-93.33 489.42,-91.31"/>
<polygon fill="#757575" stroke="#757575" points="490.25,-94.72 499.48,-89.52 489.02,-87.83 490.25,-94.72"/>
</g>
<!-- menus/create/submenus/createTable.js -->
<g id="node12" class="node">
<title>menus/create/submenus/createTable.js</title>
<path fill="none" stroke="#c6c5fe" d="M702.33,-130.5C702.33,-130.5 464.67,-130.5 464.67,-130.5 460.83,-130.5 457,-126.67 457,-122.83 457,-122.83 457,-115.17 457,-115.17 457,-111.33 460.83,-107.5 464.67,-107.5 464.67,-107.5 702.33,-107.5 702.33,-107.5 706.17,-107.5 710,-111.33 710,-115.17 710,-115.17 710,-122.83 710,-122.83 710,-126.67 706.17,-130.5 702.33,-130.5"/>
<text text-anchor="middle" x="583.5" y="-115.3" font-family="Arial" font-size="14.00" fill="#c6c5fe">menus/create/submenus/createTable.js</text>
</g>
<!-- menus/create/createMenu.js&#45;&gt;menus/create/submenus/createTable.js -->
<g id="edge16" class="edge">
<title>menus/create/createMenu.js&#45;&gt;menus/create/submenus/createTable.js</title>
<path fill="none" stroke="#757575" d="M421.32,-131.03C429.58,-130.42 438.05,-129.78 446.56,-129.15"/>
<polygon fill="#757575" stroke="#757575" points="446.86,-132.64 456.58,-128.4 446.34,-125.66 446.86,-132.64"/>
</g>
<!-- menus/create/submenus/createRow.js&#45;&gt;menus/print/printMenu.js -->
<g id="edge22" class="edge">
<title>menus/create/submenus/createRow.js&#45;&gt;menus/print/printMenu.js</title>
<path fill="none" stroke="#757575" d="M691.39,-89.61C697.86,-91.96 704.12,-94.73 710,-98 723.15,-105.31 783.28,-178.57 812.28,-214.43"/>
<polygon fill="#757575" stroke="#757575" points="809.61,-216.7 818.61,-222.28 815.05,-212.3 809.61,-216.7"/>
</g>
<!-- menus/create/submenus/createRow.js&#45;&gt;database/engine/checkData.js -->
<g id="edge18" class="edge">
<title>menus/create/submenus/createRow.js&#45;&gt;database/engine/checkData.js</title>
<path fill="none" stroke="#757575" d="M660.42,-66.48C745.01,-54.67 885.96,-38 1008,-38 1008,-38 1008,-38 1211.5,-38 1366.49,-38 1546.33,-79.45 1632.43,-101.92"/>
<polygon fill="#757575" stroke="#757575" points="1631.65,-105.33 1642.21,-104.49 1633.43,-98.56 1631.65,-105.33"/>
</g>
<!-- menus/create/submenus/createRow.js&#45;&gt;database/schema/database.js -->
<g id="edge21" class="edge">
<title>menus/create/submenus/createRow.js&#45;&gt;database/schema/database.js</title>
<path fill="none" stroke="#757575" d="M621.47,-66.49C694.54,-44.79 862.96,0 1008,0 1008,0 1008,0 1451.5,0 1602.27,0 1640.39,-23.08 1783,-72 1820.24,-84.78 1860.72,-105.18 1887.22,-119.51"/>
<polygon fill="#757575" stroke="#757575" points="1885.87,-122.75 1896.32,-124.48 1889.23,-116.61 1885.87,-122.75"/>
</g>
<!-- menus/create/submenus/createRow.js&#45;&gt;database/engine/makeData.js -->
<g id="edge19" class="edge">
<title>menus/create/submenus/createRow.js&#45;&gt;database/engine/makeData.js</title>
<path fill="none" stroke="#757575" d="M707.29,-88.7C852.45,-101.36 1101.32,-123.11 1315,-142 1323.83,-142.78 1332.99,-143.59 1342.18,-144.41"/>
<polygon fill="#757575" stroke="#757575" points="1341.89,-147.9 1352.16,-145.3 1342.51,-140.93 1341.89,-147.9"/>
</g>
<!-- menus/create/submenus/createRow.js&#45;&gt;database/engine/variadicData.js -->
<g id="edge20" class="edge">
<title>menus/create/submenus/createRow.js&#45;&gt;database/engine/variadicData.js</title>
<path fill="none" stroke="#757575" d="M707.23,-78C820.05,-78 985.97,-78 1095.83,-78"/>
<polygon fill="#757575" stroke="#757575" points="1095.95,-81.5 1105.95,-78 1095.95,-74.5 1095.95,-81.5"/>
</g>
<!-- menus/create/submenus/createTable.js&#45;&gt;menus/print/printMenu.js -->
<g id="edge25" class="edge">
<title>menus/create/submenus/createTable.js&#45;&gt;menus/print/printMenu.js</title>
<path fill="none" stroke="#757575" d="M682.26,-130.53C692.16,-134.19 701.63,-138.92 710,-145 736.1,-163.95 720.91,-187.74 746,-208 750.96,-212 756.54,-215.39 762.4,-218.26"/>
<polygon fill="#757575" stroke="#757575" points="761.22,-221.57 771.79,-222.36 764.02,-215.15 761.22,-221.57"/>
</g>
<!-- menus/create/submenus/createTable.js&#45;&gt;database/schema/database.js -->
<g id="edge24" class="edge">
<title>menus/create/submenus/createTable.js&#45;&gt;database/schema/database.js</title>
<path fill="none" stroke="#757575" d="M683.81,-130.5C858.73,-149.45 1233.27,-184.18 1550,-174 1653.72,-170.66 1679.94,-171.16 1783,-159 1804.08,-156.51 1826.88,-152.92 1847.58,-149.31"/>
<polygon fill="#757575" stroke="#757575" points="1848.31,-152.74 1857.55,-147.55 1847.09,-145.85 1848.31,-152.74"/>
</g>
<!-- menus/create/submenus/createTable.js&#45;&gt;database/index.js -->
<g id="edge23" class="edge">
<title>menus/create/submenus/createTable.js&#45;&gt;database/index.js</title>
<path fill="none" stroke="#757575" d="M672.47,-130.53C685.35,-133.72 698.23,-137.8 710,-143 728.29,-151.09 727.92,-161.45 746,-170 764.07,-178.54 874.56,-204.15 946.16,-220.27"/>
<polygon fill="#757575" stroke="#757575" points="945.47,-223.7 955.99,-222.48 947,-216.87 945.47,-223.7"/>
</g>
<!-- menus/delete/deleteMenu.js&#45;&gt;menus/print/printMenu.js -->
<g id="edge28" class="edge">
<title>menus/delete/deleteMenu.js&#45;&gt;menus/print/printMenu.js</title>
<path fill="none" stroke="#757575" d="M420.58,-251.93C510.42,-247.97 645.98,-242.01 735.71,-238.06"/>
<polygon fill="#757575" stroke="#757575" points="736.04,-241.55 745.88,-237.61 735.73,-234.56 736.04,-241.55"/>
</g>
<!-- menus/delete/submenus/deleteRow.js -->
<g id="node14" class="node">
<title>menus/delete/submenus/deleteRow.js</title>
<path fill="none" stroke="#c6c5fe" d="M698.33,-286.5C698.33,-286.5 468.67,-286.5 468.67,-286.5 464.83,-286.5 461,-282.67 461,-278.83 461,-278.83 461,-271.17 461,-271.17 461,-267.33 464.83,-263.5 468.67,-263.5 468.67,-263.5 698.33,-263.5 698.33,-263.5 702.17,-263.5 706,-267.33 706,-271.17 706,-271.17 706,-278.83 706,-278.83 706,-282.67 702.17,-286.5 698.33,-286.5"/>
<text text-anchor="middle" x="583.5" y="-271.3" font-family="Arial" font-size="14.00" fill="#c6c5fe">menus/delete/submenus/deleteRow.js</text>
</g>
<!-- menus/delete/deleteMenu.js&#45;&gt;menus/delete/submenus/deleteRow.js -->
<g id="edge26" class="edge">
<title>menus/delete/deleteMenu.js&#45;&gt;menus/delete/submenus/deleteRow.js</title>
<path fill="none" stroke="#757575" d="M420.6,-262.91C430.41,-263.65 440.51,-264.4 450.65,-265.16"/>
<polygon fill="#757575" stroke="#757575" points="450.57,-268.66 460.8,-265.91 451.09,-261.68 450.57,-268.66"/>
</g>
<!-- menus/delete/submenus/dropTable.js -->
<g id="node15" class="node">
<title>menus/delete/submenus/dropTable.js</title>
<path fill="none" stroke="#c6c5fe" d="M696.83,-327.5C696.83,-327.5 470.17,-327.5 470.17,-327.5 466.33,-327.5 462.5,-323.67 462.5,-319.83 462.5,-319.83 462.5,-312.17 462.5,-312.17 462.5,-308.33 466.33,-304.5 470.17,-304.5 470.17,-304.5 696.83,-304.5 696.83,-304.5 700.67,-304.5 704.5,-308.33 704.5,-312.17 704.5,-312.17 704.5,-319.83 704.5,-319.83 704.5,-323.67 700.67,-327.5 696.83,-327.5"/>
<text text-anchor="middle" x="583.5" y="-312.3" font-family="Arial" font-size="14.00" fill="#c6c5fe">menus/delete/submenus/dropTable.js</text>
</g>
<!-- menus/delete/deleteMenu.js&#45;&gt;menus/delete/submenus/dropTable.js -->
<g id="edge27" class="edge">
<title>menus/delete/deleteMenu.js&#45;&gt;menus/delete/submenus/dropTable.js</title>
<path fill="none" stroke="#757575" d="M360.79,-267.59C386.65,-276.38 423.78,-288.24 457,-296 467.45,-298.44 478.45,-300.67 489.42,-302.69"/>
<polygon fill="#757575" stroke="#757575" points="489.02,-306.17 499.48,-304.48 490.25,-299.28 489.02,-306.17"/>
</g>
<!-- menus/delete/submenus/deleteRow.js&#45;&gt;menus/print/printMenu.js -->
<g id="edge30" class="edge">
<title>menus/delete/submenus/deleteRow.js&#45;&gt;menus/print/printMenu.js</title>
<path fill="none" stroke="#757575" d="M652.98,-263.47C683.06,-258.4 718.55,-252.43 749.67,-247.19"/>
<polygon fill="#757575" stroke="#757575" points="750.34,-250.63 759.62,-245.51 749.17,-243.72 750.34,-250.63"/>
</g>
<!-- menus/delete/submenus/deleteRow.js&#45;&gt;database/index.js -->
<g id="edge29" class="edge">
<title>menus/delete/submenus/deleteRow.js&#45;&gt;database/index.js</title>
<path fill="none" stroke="#757575" d="M706.22,-271.29C768.06,-268.37 844.25,-263.18 912,-254 924.13,-252.36 937.01,-250.06 949.27,-247.61"/>
<polygon fill="#757575" stroke="#757575" points="950.31,-250.97 959.39,-245.52 948.89,-244.11 950.31,-250.97"/>
</g>
<!-- menus/delete/submenus/dropTable.js&#45;&gt;menus/print/printMenu.js -->
<g id="edge32" class="edge">
<title>menus/delete/submenus/dropTable.js&#45;&gt;menus/print/printMenu.js</title>
<path fill="none" stroke="#757575" d="M678.52,-304.46C689.26,-302.13 699.95,-299.34 710,-296 743.35,-284.92 778.65,-265.17 801.85,-250.93"/>
<polygon fill="#757575" stroke="#757575" points="803.79,-253.85 810.42,-245.59 800.09,-247.91 803.79,-253.85"/>
</g>
<!-- menus/delete/submenus/dropTable.js&#45;&gt;database/index.js -->
<g id="edge31" class="edge">
<title>menus/delete/submenus/dropTable.js&#45;&gt;database/index.js</title>
<path fill="none" stroke="#757575" d="M704.74,-309.72C767.37,-304.34 844.73,-294.4 912,-276 934.71,-269.79 959,-259.12 977.46,-250.09"/>
<polygon fill="#757575" stroke="#757575" points="979.17,-253.15 986.55,-245.55 976.04,-246.89 979.17,-253.15"/>
</g>
</g>
</svg>
